<svg id="Layer_1" enable-background="new 0 0 512 512" height="512" viewBox="0 0 512 512" width="512" xmlns="http://www.w3.org/2000/svg"><g clip-rule="evenodd" fill-rule="evenodd"><path d="m337.105 152.162c45.775-28.931 101.583 3.372 115.783 58.033 19.869 76.593-19.245 47.831-29.959 41.257l-44.131-27.118c-1.587-3.854-3.231-7.707-4.96-11.533-10.034-22.045-22.476-43.071-36.733-60.639z" fill="#a0e5a5"/><path d="m288.751 337.537-32.736 18.901-32.765-18.901-32.737-18.9v-37.829-37.8l32.737-18.9 32.765-18.901 32.736 18.901 32.765 18.9v37.8 37.829z" fill="#d1a184"/><path d="m321.516 243.008-32.765-18.9-32.737-18.9v-100.962c19.188 0 37.527 7.934 54.278 21.11 9.467 7.424 18.452 16.52 26.813 26.806 14.257 17.568 26.699 38.594 36.733 60.639z" fill="#e8d0c1"/><path d="m223.25 224.108-32.737 18.9-52.35-30.206c10.034-22.046 22.476-43.071 36.733-60.639 8.361-10.286 17.346-19.382 26.813-26.806 16.751-13.176 35.089-21.11 54.306-21.11v100.962z" fill="#e8d0c1"/><path d="m190.513 318.637-73.041 42.136c-2.806-8.076-4.705-16.832-5.584-26.353-.397-4.165-.595-8.444-.595-12.865 0-22.924 5.329-50.58 14.824-78.35 3.486-10.201 7.511-20.402 12.046-30.405l52.35 30.206v37.8z" fill="#e8d0c1"/><path d="m394.529 360.773-73.013-42.136v-37.829-37.8l52.322-30.206c4.535 10.003 8.56 20.204 12.046 30.405 9.495 27.769 14.824 55.426 14.824 78.35 0 4.42-.198 8.699-.595 12.865-.879 9.519-2.778 18.275-5.584 26.351z" fill="#e8d0c1"/><path d="m367.858 400.642c-18.593 16.52-43.904 26.664-72.899 31.283-12.414 1.955-25.452 2.89-38.944 2.89v-78.378l32.737-18.9 32.765-18.9 73.013 42.136c-5.585 16.038-14.74 29.271-26.672 39.869z" fill="#e8d0c1"/><path d="m256.015 434.815c-13.52 0-26.558-.935-38.972-2.89-28.967-4.619-54.306-14.763-72.899-31.283-11.933-10.598-21.087-23.831-26.671-39.869l73.041-42.136 32.737 18.9 32.765 18.9v78.378z" fill="#e8d0c1"/><path d="m294.958 431.925c-.765 38.792-27.691 69.99-38.944 69.99-11.281 0-38.207-31.198-38.972-69.99 12.414 1.955 25.452 2.89 38.972 2.89 13.492 0 26.53-.935 38.944-2.89z" fill="#a0e5a5"/><path d="m256.015 104.246c-19.217 0-37.555 7.934-54.306 21.11-5.414-9.294-8.503-20.062-8.503-31.566 0-34.683 28.117-83.705 62.809-83.705 34.664 0 62.781 49.022 62.781 83.705 0 11.504-3.089 22.272-8.503 31.566-16.752-13.176-35.09-21.11-54.278-21.11z" fill="#a0e5a5"/><path d="m144.143 400.642c-11.933-10.598-21.087-23.831-26.671-39.869-1.644-4.76-3.004-9.804-3.996-15.075-14.427 12.156-25.707 29.611-31.064 50.24-19.869 76.593 19.245 47.831 29.959 41.229l44.131-27.118c-4.394-2.861-8.504-6.007-12.359-9.407z" fill="#a0e5a5"/><path d="m429.589 395.938c-5.357-20.629-16.638-38.084-31.064-50.24-.992 5.271-2.352 10.314-3.996 15.075-5.584 16.038-14.739 29.271-26.671 39.869-3.826 3.4-7.964 6.546-12.358 9.408l44.131 27.118c10.713 6.602 49.827 35.363 29.958-41.23z" fill="#a0e5a5"/><path d="m174.896 152.162c-45.775-28.931-101.583 3.372-115.783 58.033-19.869 76.593 19.245 47.831 29.959 41.257l44.131-27.118c1.587-3.854 3.231-7.707 4.96-11.533 10.033-22.045 22.476-43.071 36.733-60.639z" fill="#a0e5a5"/></g><path d="m462.644 207.644c-1.387-5.305-3.182-10.593-5.333-15.719-2.156-5.135-8.069-7.55-13.202-5.395-5.135 2.156-7.55 8.067-5.395 13.202 1.785 4.25 3.27 8.628 4.413 12.995 7.652 29.499 4.846 37.836 4.057 39.415-1.88.132-6.348-1.27-16.735-7.873-.837-.532-1.591-1.01-2.24-1.409l-41.383-25.43c-1.14-2.712-2.316-5.411-3.525-8.093-.174-.473-.382-.938-.632-1.392-4.743-10.399-9.985-20.529-15.66-30.139-4.694-7.948-9.556-15.355-14.555-22.233 10.874-4.386 22.479-5.319 34.092-2.651 5.434 1.25 10.84-2.143 12.088-7.57 1.248-5.428-2.142-10.84-7.57-12.088-17.725-4.074-35.388-1.971-51.585 6.031-5.398-6.148-10.925-11.695-16.557-16.629 3.911-9.062 5.96-18.896 5.96-28.879-.002-37.765-30.598-93.787-72.867-93.787-19.325 0-38.053 11.802-52.735 33.231-12.623 18.427-20.159 41.065-20.159 60.558 0 9.985 2.05 19.822 5.963 28.886-5.631 4.933-11.158 10.479-16.555 16.625-16.199-8.004-33.864-10.108-51.59-6.034-5.428 1.248-8.817 6.66-7.57 12.088 1.248 5.428 6.655 8.818 12.088 7.57 11.616-2.67 23.222-1.735 34.096 2.653-4.999 6.877-9.861 14.283-14.555 22.23-5.669 9.598-18.683 36.922-19.819 39.623l-41.381 25.427c-.654.402-1.409.881-2.245 1.413-10.389 6.604-14.846 8.009-16.735 7.873-.789-1.58-3.595-9.915 4.052-39.396 1.147-4.386 2.633-8.765 4.417-13.014 2.156-5.136-.26-11.046-5.395-13.202-5.136-2.154-11.046.259-13.203 5.395-2.152 5.126-3.946 10.414-5.338 15.738-8.801 33.927-7.691 52.721 3.599 60.938 3.671 2.671 7.668 3.721 11.728 3.721 10.34-.001 21.067-6.819 27.694-11.031.735-.468 1.398-.889 1.979-1.247l19.63-12.062c-8.148 25.953-12.773 51.662-12.773 73.574 0 7.043.487 13.823 1.435 20.337-14.256 13.545-24.827 31.615-29.993 51.513-8.804 33.936-7.691 52.731 3.607 60.942 3.668 2.666 7.661 3.715 11.717 3.715 10.362-.001 21.111-6.853 27.749-11.086.72-.46 1.372-.875 1.926-1.217l38.817-23.852c14.461 8.493 31.556 14.745 51.026 18.571 2.275 21.492 11.14 38.037 16.641 46.489 3.824 5.872 17.423 25.033 31.882 25.033 14.458 0 28.048-19.163 31.869-25.037 5.496-8.449 14.351-24.992 16.625-46.481 19.472-3.824 36.569-10.077 51.031-18.571l38.8 23.842c.566.349 1.217.764 1.938 1.224 6.638 4.233 17.387 11.086 27.749 11.086 4.054 0 8.05-1.049 11.717-3.715 11.298-8.211 12.411-27.006 3.607-60.944-5.167-19.896-15.737-37.966-29.993-51.511.948-6.514 1.435-13.295 1.435-20.337 0-21.912-4.624-47.62-12.772-73.573l19.634 12.065c.576.353 1.239.775 1.974 1.243 6.627 4.212 17.352 11.031 27.694 11.031 4.059 0 8.059-1.05 11.728-3.721 11.289-8.22 12.399-27.014 3.593-60.959zm-93.566 19.551c.161.389.322.778.482 1.168.024.055.043.112.068.166 13.171 32.198 20.995 65.882 20.995 93.027 0 8.694-.822 16.663-2.343 23.968l-56.68-32.71v-63.983zm-19.438-39.132c3.932 6.659 7.644 13.574 11.108 20.65l-39.233 22.649-55.415-31.98v-84.156c28.832 4.981 58.77 30.895 83.54 72.837zm-38.208 60.77v63.979l-55.418 31.982-55.416-31.979v-63.985l55.416-31.979zm-55.417-228.664c12.277 0 25.423 8.916 36.069 24.46 10.255 14.975 16.627 33.813 16.627 49.16 0 5.539-.873 11.01-2.549 16.212-16.284-10.406-33.187-15.84-50.146-15.84-16.969 0-33.881 5.437-50.173 15.848-1.678-5.204-2.552-10.678-2.552-16.22-.001-31.465 26.066-73.62 52.724-73.62zm-93.651 167.894c24.775-41.943 54.723-67.859 83.567-72.837v84.157l-55.417 31.981-39.258-22.652c3.464-7.076 7.175-13.99 11.108-20.649zm-19.986 40.457c.015-.033.027-.067.041-.101.168-.409.337-.818.506-1.227l37.504 21.639v63.98l-56.707 32.713c-1.521-7.306-2.344-15.275-2.344-23.97 0-27.147 7.826-60.835 21-93.034zm-35.299 200.062c-.642.395-1.381.866-2.199 1.388-10.398 6.63-14.853 8.036-16.766 7.91-.79-1.583-3.59-9.925 4.059-39.408 3.174-12.226 8.805-23.581 16.305-33.122 6.247 17.204 16.431 31.91 30.178 43.829zm23.021-63.452 60.412-34.85 55.418 31.981v62.263c-35.32-1.439-93.833-11.408-115.83-59.394zm125.914 126.566c-5.945-2.397-23.133-21.424-27.75-48.167 8.855.899 18.103 1.37 27.751 1.37 9.638 0 18.876-.47 27.722-1.368-4.613 26.741-21.784 45.768-27.723 48.165zm10.085-67.172v-62.263l55.417-31.981 60.387 34.849c-21.992 47.986-80.49 57.955-115.804 59.395zm137.425-59.173c7.499 9.541 13.13 20.895 16.304 33.119 7.649 29.484 4.849 37.827 4.059 39.41-1.905.123-6.369-1.282-16.766-7.91-.818-.522-1.557-.993-2.211-1.395l-31.561-19.393c13.746-11.919 23.929-26.626 30.175-43.831z"/><path d="m416.506 168.644c1.966 1.965 4.538 2.946 7.111 2.946 2.581 0 5.165-.988 7.137-2.961 3.938-3.938 3.924-10.337-.014-14.276-3.938-3.938-10.325-3.938-14.263 0-3.938 3.939-3.938 10.324 0 14.263z"/><path d="m88.411 171.575c1.522 0 3.067-.345 4.519-1.07 4.982-2.491 7.001-8.549 4.51-13.531s-8.549-7.001-13.531-4.51l-.057.028c-4.982 2.491-6.972 8.534-4.482 13.516 1.767 3.531 5.338 5.567 9.041 5.567z"/></svg>